HIERARCHY
ROOT Hips
{
	OFFSET 0.000000 0.000000 0.000000
	CHANNELS 6 Xposition Yposition Zposition Xrotation Yrotation Zrotation
	JOINT Spine
	{
		OFFSET 0.000000 0.044490 0.066735
		CHANNELS 3 Xrotation Yrotation Zrotation
		JOINT Spine1
		{
			OFFSET 0.000000 0.015451 0.087628
			CHANNELS 3 Xrotation Yrotation Zrotation
			JOINT Spine2
			{
				OFFSET 0.000000 0.007755 0.088641
				CHANNELS 3 Xrotation Yrotation Zrotation
				JOINT Spine3
				{
					OFFSET 0.000000 0.000000 0.088980
					CHANNELS 3 Xrotation Yrotation Zrotation
					JOINT Neck
					{
						OFFSET 0.000000 -0.033367 0.233572
						CHANNELS 3 Xrotation Yrotation Zrotation
						JOINT Head
						{
							OFFSET 0.000000 -0.021245 0.120488
							CHANNELS 3 Xrotation Yrotation Zrotation
							End Site
							{
								OFFSET 0.000000 0.000000 0.000000
							}
						}
					}
					JOINT RightShoulder
					{
						OFFSET -0.026917 -0.044862 0.145355
						CHANNELS 3 Xrotation Yrotation Zrotation
						JOINT RightArm
						{
							OFFSET -0.133690 0.000000 0.000000
							CHANNELS 3 Xrotation Yrotation Zrotation
							JOINT RightForeArm
							{
								OFFSET -0.257725 0.000000 0.000000
								CHANNELS 3 Xrotation Yrotation Zrotation
								JOINT RightHand
								{
									OFFSET -0.216749 0.000000 0.000000
									CHANNELS 3 Xrotation Yrotation Zrotation
									JOINT RightHandEnd
									{
										OFFSET -0.062518 0.000000 0.000000
										CHANNELS 3 Xrotation Yrotation Zrotation
										End Site
										{
											OFFSET 0.000000 0.000000 0.000000
										}
									}
									JOINT RightHandThumb1
									{
										OFFSET -0.025007 -0.041679 -0.016672
										CHANNELS 3 Xrotation Yrotation Zrotation
										End Site
										{
											OFFSET 0.000000 0.000000 0.000000
										}
									}
								}
							}
						}
					}
					JOINT LeftShoulder
					{
						OFFSET 0.026917 -0.044862 0.145355
						CHANNELS 3 Xrotation Yrotation Zrotation
						JOINT LeftArm
						{
							OFFSET 0.133690 0.000000 0.000000
							CHANNELS 3 Xrotation Yrotation Zrotation
							JOINT LeftForeArm
							{
								OFFSET 0.257725 0.000000 0.000000
								CHANNELS 3 Xrotation Yrotation Zrotation
								JOINT LeftHand
								{
									OFFSET 0.216749 0.000000 0.000000
									CHANNELS 3 Xrotation Yrotation Zrotation
									JOINT LeftHandEnd
									{
										OFFSET 0.062518 0.000000 0.000000
										CHANNELS 3 Xrotation Yrotation Zrotation
										End Site
										{
											OFFSET 0.000000 0.000000 0.000000
										}
									}
									JOINT LeftHandThumb1
									{
										OFFSET 0.025007 -0.041679 -0.016672
										CHANNELS 3 Xrotation Yrotation Zrotation
										End Site
										{
											OFFSET 0.000000 0.000000 0.000000
										}
									}
								}
							}
						}
					}
				}
			}
		}
	}
	JOINT RightUpLeg
	{
		OFFSET -0.079855 0.000000 -0.023329
		CHANNELS 3 Xrotation Yrotation Zrotation
		JOINT RightLeg
		{
			OFFSET 0.000000 0.000000 -0.366572
			CHANNELS 3 Xrotation Yrotation Zrotation
			JOINT RightFoot
			{
				OFFSET 0.000000 0.000000 -0.363650
				CHANNELS 3 Xrotation Yrotation Zrotation
				JOINT RightToeBase
				{
					OFFSET 0.000000 -0.114715 -0.041753
					CHANNELS 3 Xrotation Yrotation Zrotation
					End Site
					{
						OFFSET 0.000000 0.000000 0.000000
					}
				}
			}
		}
	}
	JOINT LeftUpLeg
	{
		OFFSET 0.079855 0.000000 -0.023329
		CHANNELS 3 Xrotation Yrotation Zrotation
		JOINT LeftLeg
		{
			OFFSET 0.000000 0.000000 -0.366572
			CHANNELS 3 Xrotation Yrotation Zrotation
			JOINT LeftFoot
			{
				OFFSET 0.000000 0.000000 -0.363650
				CHANNELS 3 Xrotation Yrotation Zrotation
				JOINT LeftToeBase
				{
					OFFSET 0.000000 -0.114715 -0.041753
					CHANNELS 3 Xrotation Yrotation Zrotation
					End Site
					{
						OFFSET 0.000000 0.000000 0.000000
					}
				}
			}
		}
	}
}
MOTION
Frames: 13
Frame Time: 0.033333
0.722841 -0.612709 0.808314 2.341300 -2.656600 -93.422300 -0.808100 -0.600800 0.259700 -0.716500 -0.808100 -0.059600 -0.271100 0.057800 -0.577600 0.208300 0.119200 -0.191200 2.215200 0.172100 -0.417100 7.059300 -2.815100 0.806500 -2.886000 9.635400 2.836900 -6.221000 -5.625700 -5.632500 0.000000 0.000000 2.005400 3.398000 11.416700 -8.933700 0.000000 0.000000 0.000000 0.000000 0.000000 0.000000 -4.019600 -11.025800 -2.740900 0.928600 12.980300 16.314500 0.000000 0.000000 -10.342200 3.770800 -9.207600 3.886100 0.000000 0.000000 0.000000 0.000000 0.000000 0.000000 0.828000 -0.271300 -10.552100 0.305900 0.000000 0.000000 -5.513900 -4.294100 -10.210600 0.547600 0.000000 0.000000 -1.043400 -5.377900 27.100100 3.658800 0.000000 0.000000 -3.497300 4.560700 2.471300 0.068200 0.000000 0.000000 
0.722912 -0.612673 0.808307 2.351400 -2.661000 -93.423900 -0.800000 -0.596800 0.259500 -0.714100 -0.801900 -0.059300 -0.275500 0.041300 -0.586900 0.207000 0.134200 -0.182800 2.244200 0.147000 -0.440400 7.058600 -2.789200 0.842500 -2.863400 9.602500 2.823200 -6.218800 -5.588200 -5.597600 0.000000 0.000000 1.981400 3.384700 11.361600 -8.909900 0.000000 0.000000 0.000000 0.000000 0.000000 0.000000 -3.932000 -11.019200 -2.628200 0.846600 12.953600 16.172100 0.000000 0.000000 -10.546700 3.770300 -9.336100 4.622600 0.000000 0.000000 0.000000 0.000000 0.000000 0.000000 0.817500 -0.285200 -10.537400 0.308900 0.000000 0.000000 -5.508400 -4.294400 -10.210000 0.552900 0.000000 0.000000 -1.051300 -5.393800 27.093200 3.657900 0.000000 0.000000 -3.499500 4.560800 2.479500 0.069100 0.000000 0.000000 
0.723049 -0.612610 0.808304 2.362400 -2.677700 -93.417000 -0.792600 -0.601600 0.258500 -0.707300 -0.798800 -0.058500 -0.288700 0.039200 -0.582400 0.202900 0.145500 -0.180700 2.279700 0.154200 -0.446100 7.072200 -2.804800 0.860900 -2.847500 9.610100 2.809400 -6.217100 -5.590000 -5.601300 0.000000 0.000000 1.970300 3.431700 11.321700 -8.915700 0.000000 0.000000 0.000000 0.000000 0.000000 0.000000 -3.899800 -11.012100 -2.587200 0.786100 12.914600 16.088400 0.000000 0.000000 -10.665500 3.779300 -9.377300 5.050100 0.000000 0.000000 0.000000 0.000000 0.000000 0.000000 0.791300 -0.301800 -10.520500 0.310400 0.000000 0.000000 -5.494600 -4.297900 -10.212900 0.649500 0.000000 0.000000 -1.082500 -5.414500 27.079900 3.666700 0.000000 0.000000 -3.511800 4.512200 2.496700 0.077600 0.000000 0.000000 
0.723217 -0.612534 0.808299 2.368200 -2.705400 -93.403700 -0.787800 -0.610900 0.256000 -0.697400 -0.795500 -0.057200 -0.310700 0.049800 -0.568600 0.195400 0.148100 -0.184200 2.300900 0.182600 -0.436300 7.092300 -2.853900 0.860400 -2.853900 9.651900 2.788400 -6.210800 -5.621700 -5.631100 0.000000 0.000000 1.976000 3.481500 11.293000 -8.938300 0.000000 0.000000 0.000000 0.000000 0.000000 0.000000 -3.930000 -11.015400 -2.629100 0.783100 12.895800 16.088000 0.000000 0.000000 -10.651100 3.790600 -9.331700 5.040600 0.000000 0.000000 0.000000 0.000000 0.000000 0.000000 0.753400 -0.313600 -10.511300 0.307900 0.000000 0.000000 -5.477300 -4.298300 -10.219400 0.760100 0.000000 0.000000 -1.132700 -5.430200 27.067000 3.683200 0.000000 0.000000 -3.525800 4.442100 2.509900 0.074600 0.000000 0.000000 
0.723387 -0.612478 0.808302 2.370800 -2.735100 -93.398500 -0.782500 -0.613200 0.254800 -0.688100 -0.789800 -0.055700 -0.334800 0.056100 -0.567700 0.188000 0.147000 -0.186100 2.302500 0.194900 -0.429800 7.106000 -2.883200 0.869800 -2.859800 9.682800 2.746200 -6.211200 -5.640500 -5.618100 0.000000 0.000000 1.978200 3.480800 11.277300 -8.958400 0.000000 0.000000 0.000000 0.000000 0.000000 0.000000 -3.954800 -11.026600 -2.660600 0.812900 12.899400 16.098000 0.000000 0.000000 -10.598000 3.791400 -9.297900 4.955700 0.000000 0.000000 0.000000 0.000000 0.000000 0.000000 0.710600 -0.321700 -10.510300 0.307500 0.000000 0.000000 -5.464000 -4.295900 -10.220100 0.761000 0.000000 0.000000 -1.182300 -5.441000 27.059700 3.695100 0.000000 0.000000 -3.523200 4.418200 2.510100 0.057300 0.000000 0.000000 
0.723572 -0.612452 0.808327 2.372400 -2.770700 -93.408900 -0.783400 -0.606200 0.256000 -0.684500 -0.787500 -0.055900 -0.353300 0.058300 -0.583100 0.182700 0.148400 -0.191500 2.300200 0.178000 -0.426000 7.118600 -2.867900 0.895800 -2.856000 9.681400 2.722800 -6.208300 -5.634400 -5.583100 0.000000 0.000000 1.972500 3.467200 11.268300 -8.972000 0.000000 0.000000 0.000000 0.000000 0.000000 0.000000 -3.943600 -11.036200 -2.629500 0.838800 12.897100 16.081200 0.000000 0.000000 -10.587300 3.789500 -9.320600 5.025000 0.000000 0.000000 0.000000 0.000000 0.000000 0.000000 0.652500 -0.327700 -10.510000 0.319800 0.000000 0.000000 -5.455400 -4.297400 -10.210300 0.681500 0.000000 0.000000 -1.233600 -5.451200 27.055600 3.700400 0.000000 0.000000 -3.503400 4.448400 2.509100 0.055100 0.000000 0.000000 
0.723730 -0.612450 0.808363 2.371300 -2.792700 -93.425800 -0.777700 -0.600400 0.257500 -0.678000 -0.790400 -0.057000 -0.374500 0.070000 -0.595200 0.177100 0.154400 -0.204300 2.314300 0.153600 -0.411600 7.144100 -2.844700 0.910400 -2.843100 9.682600 2.734500 -6.195900 -5.644600 -5.581200 0.000000 0.000000 1.957900 3.499200 11.256500 -8.967000 0.000000 0.000000 0.000000 0.000000 0.000000 0.000000 -3.922200 -11.048600 -2.584600 0.848500 12.878700 16.064800 0.000000 0.000000 -10.589600 3.797700 -9.353800 5.100500 0.000000 0.000000 0.000000 0.000000 0.000000 0.000000 0.611600 -0.328300 -10.508200 0.329600 0.000000 0.000000 -5.445500 -4.307200 -10.197000 0.657900 0.000000 0.000000 -1.262200 -5.453800 27.060500 3.695000 0.000000 0.000000 -3.484800 4.475000 2.514200 0.080200 0.000000 0.000000 
0.723844 -0.612447 0.808373 2.368100 -2.802100 -93.437400 -0.767900 -0.603900 0.257300 -0.667400 -0.792800 -0.057400 -0.402400 0.090400 -0.593400 0.170000 0.161500 -0.223300 2.345800 0.145500 -0.384600 7.176400 -2.848400 0.901600 -2.840600 9.703500 2.769900 -6.171300 -5.675800 -5.633900 0.000000 0.000000 1.951800 3.542700 11.250900 -8.938500 0.000000 0.000000 0.000000 0.000000 0.000000 0.000000 -3.914800 -11.067300 -2.568900 0.845000 12.854000 16.066800 0.000000 0.000000 -10.567300 3.824900 -9.354800 5.064100 0.000000 0.000000 0.000000 0.000000 0.000000 0.000000 0.593400 -0.325000 -10.510200 0.326800 0.000000 0.000000 -5.434600 -4.319100 -10.188500 0.716700 0.000000 0.000000 -1.274900 -5.449100 27.069600 3.688200 0.000000 0.000000 -3.481800 4.463400 2.524700 0.101800 0.000000 0.000000 
0.723930 -0.612445 0.808355 2.368200 -2.807400 -93.443600 -0.761800 -0.610700 0.256000 -0.658400 -0.793700 -0.057400 -0.427900 0.105600 -0.592600 0.164300 0.167400 -0.238600 2.379900 0.156400 -0.359000 7.196500 -2.862200 0.892200 -2.838200 9.719300 2.789000 -6.164200 -5.688300 -5.674900 0.000000 0.000000 1.952800 3.542000 11.264600 -8.908300 0.000000 0.000000 0.000000 0.000000 0.000000 0.000000 -3.910700 -11.083700 -2.562000 0.833400 12.826200 16.064800 0.000000 0.000000 -10.539200 3.854700 -9.332200 5.013900 0.000000 0.000000 0.000000 0.000000 0.000000 0.000000 0.584100 -0.325000 -10.522500 0.319700 0.000000 0.000000 -5.427300 -4.327100 -10.177700 0.771800 0.000000 0.000000 -1.284900 -5.446800 27.073500 3.687200 0.000000 0.000000 -3.484200 4.445600 2.531900 0.093900 0.000000 0.000000 
0.723997 -0.612460 0.808352 2.371600 -2.806900 -93.451300 -0.758900 -0.612600 0.255800 -0.654300 -0.795400 -0.058200 -0.443700 0.108600 -0.605700 0.163000 0.172100 -0.246600 2.407000 0.180000 -0.342400 7.198800 -2.854300 0.901900 -2.822300 9.715700 2.790500 -6.184200 -5.667700 -5.670100 0.000000 0.000000 1.947100 3.516500 11.257300 -8.908500 0.000000 0.000000 0.000000 0.000000 0.000000 0.000000 -3.896600 -11.090100 -2.540300 0.827900 12.794800 16.048900 0.000000 0.000000 -10.532800 3.858900 -9.304600 5.031000 0.000000 0.000000 0.000000 0.000000 0.000000 0.000000 0.577500 -0.328300 -10.537200 0.320700 0.000000 0.000000 -5.422900 -4.330400 -10.157700 0.793000 0.000000 0.000000 -1.288300 -5.449700 27.073200 3.687300 0.000000 0.000000 -3.476900 4.451700 2.531800 0.070300 0.000000 0.000000 
0.724063 -0.612496 0.808380 2.373500 -2.803300 -93.458700 -0.758800 -0.611400 0.257200 -0.652300 -0.799600 -0.060000 -0.456800 0.108500 -0.624500 0.164200 0.178600 -0.254300 2.430100 0.207900 -0.327100 7.195100 -2.830700 0.918600 -2.807100 9.714600 2.802200 -6.194900 -5.649900 -5.659600 0.000000 0.000000 1.931700 3.536400 11.173100 -8.948400 0.000000 0.000000 0.000000 0.000000 0.000000 0.000000 -3.882900 -11.095800 -2.520600 0.841300 12.770100 16.035400 0.000000 0.000000 -10.536900 3.835300 -9.275800 5.048400 0.000000 0.000000 0.000000 0.000000 0.000000 0.000000 0.570400 -0.327900 -10.544800 0.331200 0.000000 0.000000 -5.417900 -4.330600 -10.134400 0.814400 0.000000 0.000000 -1.287900 -5.451900 27.073600 3.685900 0.000000 0.000000 -3.467100 4.462200 2.530200 0.061800 0.000000 0.000000 
0.724111 -0.612551 0.808396 2.370300 -2.798500 -93.460400 -0.759000 -0.612700 0.256500 -0.648500 -0.801600 -0.060300 -0.476700 0.111300 -0.637300 0.162300 0.185400 -0.263500 2.453700 0.240200 -0.307800 7.192500 -2.829100 0.924200 -2.813900 9.735100 2.826600 -6.174500 -5.656600 -5.676500 0.000000 0.000000 1.916800 3.606400 11.044200 -8.996400 0.000000 0.000000 0.000000 0.000000 0.000000 0.000000 -3.873900 -11.114000 -2.517900 0.852600 12.764500 16.028900 0.000000 0.000000 -10.533000 3.798400 -9.249100 5.017300 0.000000 0.000000 0.000000 0.000000 0.000000 0.000000 0.566200 -0.318900 -10.539600 0.342300 0.000000 0.000000 -5.416600 -4.331000 -10.127500 0.823700 0.000000 0.000000 -1.284200 -5.444900 27.079200 3.680200 0.000000 0.000000 -3.465800 4.457800 2.527100 0.067300 0.000000 0.000000 
0.724134 -0.612612 0.808378 2.367400 -2.794200 -93.454400 -0.758500 -0.617900 0.254100 -0.641800 -0.798800 -0.060300 -0.503500 0.112600 -0.645700 0.155600 0.191200 -0.272800 2.471800 0.278400 -0.292000 7.191100 -2.856100 0.920700 -2.828000 9.759900 2.829400 -6.169500 -5.664600 -5.686700 0.000000 0.000000 1.902700 3.675800 10.984000 -9.017800 0.000000 0.000000 0.000000 0.000000 0.000000 0.000000 -3.863600 -11.140500 -2.519400 0.828200 12.766400 16.021200 0.000000 0.000000 -10.526700 3.765700 -9.232900 4.986400 0.000000 0.000000 0.000000 0.000000 0.000000 0.000000 0.568000 -0.309600 -10.532900 0.344000 0.000000 0.000000 -5.419200 -4.336500 -10.141200 0.791000 0.000000 0.000000 -1.280700 -5.435300 27.084000 3.675400 0.000000 0.000000 -3.470400 4.448800 2.519900 0.068700 0.000000 0.000000 
